<mxfile host="app.diagrams.net" modified="2023-08-29T07:45:27.605Z" agent="Mozilla/5.0 (Macintosh; Intel Mac OS X 10_15_7) AppleWebKit/537.36 (KHTML, like Gecko) Chrome/116.0.0.0 Safari/537.36" version="21.6.9" etag="t_9XrGkcSexnxCCSMKa6" type="github">
  <diagram name="Trang-1" id="_CShufUwLd7j9trG5YyH">
    <mxGraphModel>
      <root>
        <mxCell id="0" />
        <mxCell id="1" parent="0" />
      </root>
    </mxGraphModel>
  </diagram>
</mxfile>
